<?xml version="1.0" encoding="UTF-8"?>
<svg id="Layer_1" data-name="Layer 1" xmlns="http://www.w3.org/2000/svg" viewBox="0 0 86.38 98.83">
  <defs>
    <style>
      .cls-1 {
        fill: #231f20;
        stroke-width: 0px;
      }
    </style>
  </defs>
  <path class="cls-1" d="M40.36,0c1.87,0,3.74,0,5.61,0,.23.05.45.13.68.15,4.48.38,8.81,1.4,12.98,3.12,5.98,2.47,11.16,6.1,15.5,10.87,4.21,4.64,7.3,9.96,9.2,15.96,2.24,7.11,2.66,14.35,1.17,21.64-1.97,9.65-6.7,17.74-14.19,24.17-8.13,6.98-17.6,10.38-28.3,10.48-.49,0-1.05.13-1.47.39-5.51,3.36-10.99,6.76-16.49,10.14-1,.62-2.01,1.23-3.15,1.92,0-.64-.01-1.1,0-1.56.14-5.14.27-10.28.42-15.42.02-.59-.16-.9-.67-1.25-2.4-1.65-4.88-3.23-7.08-5.12-5.61-4.81-9.61-10.8-12.08-17.75C.43,51.91-.35,45.9.15,39.71c.38-4.68,1.44-9.18,3.28-13.47,2.56-5.95,6.27-11.11,11.15-15.4C20.63,5.53,27.6,2.13,35.52.71c1.61-.29,3.23-.48,4.84-.71ZM48.98,19.29c-.43-.02-.74-.05-1.06-.05-3.19,0-6.37.03-9.55-.02-.86-.01-1.01.29-.96,1.06.2,3.24.36,6.47.53,9.71.36,7.18.72,14.35,1.06,21.53.03.57.23.75.79.75,2.28-.02,4.56-.02,6.84,0,.53,0,.77-.12.8-.72.13-2.98.31-5.95.46-8.93.29-6.04.58-12.08.86-18.12.08-1.71.16-3.42.25-5.21ZM43.03,69.16c3.65.18,6.45-2.48,6.65-6.29.19-3.78-2.4-6.75-6.09-6.95-3.84-.21-6.75,2.43-6.93,6.3-.18,3.92,2.42,6.75,6.36,6.95Z"/>
</svg>