<?xml version="1.0" encoding="UTF-8"?>
<svg id="Layer_1" data-name="Layer 1" xmlns="http://www.w3.org/2000/svg" viewBox="0 0 173.3 391.57">
  <defs>
    <style>
      .cls-1 {
        stroke-width: 0px;
      }
    </style>
  </defs>
  <g id="_2fvf89" data-name="2fvf89">
    <g>
      <path class="cls-1" d="M31.94,170.94c-.3.56-.94,1.76-1.56,2.93-17.1-6.29-24.62-28.32-14.7-42.54,1.22-1.75,2.65-4.02,4.44-4.57,5.25-1.62,4.89-5.77,5.59-9.8,4.13-23.75,8.16-47.53,12.78-71.19,1.53-7.82.42-8.44,10.31-8.07,0-7.98-.41-15.98.18-23.91.27-3.67,1.67-7.89,4-10.64,5.17-6.11,13.35-2.27,18.04,2.68,2.59,2.74,4.71,5.93,6.29,9.42,13.61,3.49,12.92,14.27,11.95,25.34,6.21-.38,6.63,3.78,7.48,7.97,4.56,22.51,9.33,44.97,13.87,67.49.56,2.8,1.69,3.69,4.48,4.1,8.22,1.22,16.42,2.67,24.54,4.46,18.68,4.11,28.11,17.05,31.1,34.87,3.8,22.66,2.86,45.56.63,68.28-3.47,35.29-7.71,70.51-11.63,105.76-.24,2.15-.08,4.55-1.01,6.37-1.16,2.28-2.88,4.88-5.04,5.88-2.87,1.33-3.55,2.26-2,5.06,3.73,6.7,2.53,13.99.88,20.76-.48,1.98-5.7,4.12-8.63,3.97-12.91-.68-25.25-4.25-36.9-9.79-2.08-.99-4.08-3.96-4.47-6.28-.62-3.72,1.5-6.96,5.42-7.89,7.27-1.74,14.64-3.07,21.95-4.65,1.3-.28,2.5-.96,3.75-1.46-.96-.94-1.76-2.3-2.91-2.75-4.35-1.7-5.91-4.5-5.52-9.27,2.46-29.7,4.71-59.42,6.98-89.13.57-7.43.94-14.88,1.42-22.72-2.65-.21-4.92-.4-7.91-.64-2.99,13.08-6.21,25.94-8.85,38.92-5.61,27.56-10.83,55.19-16.43,82.75-.94,4.62-.96,10.08-7.31,12.03-.87.27-1.32,6.1-.08,8.29,4.42,7.8,3.13,15.85,1.52,23.67-.45,2.16-5.04,4.97-7.69,4.93-16.53-.25-32.27-4.32-46.82-12.27-4.42-2.41-4.22-8.52.09-11.18,2.51-1.55,5.39-2.63,8.22-3.53,7.45-2.36,15.02-4.34,22.41-6.87,1.57-.54,3.32-2.64,3.61-4.26.28-1.57-.74-4.13-2.04-5.07-2.81-2.02-3.74-4.18-3.34-7.6,4.34-37.2,8.52-74.41,12.82-111.61.63-5.45,1.89-10.84,2.37-16.3.16-1.8-.7-4.31-2.01-5.51-2.79-2.56-6.13-4.53-9.33-6.62-7.65-5.02-15.56-9.7-22.97-15.05-6.29-4.54-12.04-9.84-17.97-14.76ZM61.95,44.06c-4.22-.99-8.86-1.69-13.2-3.22-4.91-1.73-6.94-.18-7.85,4.67-3.64,19.46-8.25,38.78-10.96,58.36-1.98,14.25-2.19,28.85-2,43.27.17,12.73,5.56,23.7,16.25,31.21,13.18,9.25,26.66,18.08,40.71,27.57.41-2.48.61-4.07.94-5.64,2.31-11.06,4.03-22.29,7.1-33.14,5.48-19.38,19.37-30,38.52-34.37,8.36-1.91,16.37-.47,24.71,3.6-9.87-14.14-73.73-18.28-99.74-15.88-1.36,11.13-2.74,22.36-4.12,33.58-.75-.09-1.5-.18-2.25-.28,3.93-36.32,7.86-72.64,11.88-109.75ZM108.42,118.86c-4.96-24.48-9.84-48.69-14.88-72.86-.21-1-1.99-2.41-3-2.37-4.23.13-8.45.75-13.29,1.25.89,24.54,1.75,48.39,2.62,72.19,9.88.62,19.09,1.21,28.55,1.8ZM56.17,117.01h21.35c0-1.61.05-3.06,0-4.5-.82-20.77-1.66-41.55-2.46-62.32-.08-1.97-.21-4.05.3-5.91,1.34-4.91-.68-10.47-5.06-12.42-1.03-.46-3.3-.52-3.47-.12-1.31,3.14-2.71,6.36-3.16,9.69-.4,2.91.93,6.05.59,8.98-2.54,21.95-5.3,43.88-8.08,66.6ZM73.4,359.64c-10.78,3.39-21.68,6.81-32.59,10.23.06.61.13,1.22.19,1.83,16.39,7.5,33.38,12.29,52.16,11.24-.27-6.48,1.34-12.56-2.15-18.23q-10.83,7.21-17.61-5.07ZM60.03,40.97c-.32-.37-.64-.74-.96-1.11,3.64-5.16,7.52-10.17,10.82-15.54,2.12-3.44,3.38-7.4,5.03-11.12-.59-.28-1.17-.55-1.76-.83-1.6,2.61-3.19,5.23-5.17,8.47-2.26-4.88-1.11-7.76,3.25-9.83-1.11-1.67-2.12-3.17-3.41-5.12-1.43,2.23-2.37,3.68-3.93,6.11.4-3.45.66-5.72.92-8-.62-.13-1.24-.25-1.87-.38-.99,1.99-1.97,3.98-2.96,5.97-.27-.1-.55-.19-.82-.29.37-1.97.74-3.95,1.17-6.21-6.5-.75-3.07,6.24-6.42,7.92-.18-1.7-.33-3.16-.48-4.61l-1.24.06v32.52c2.19.55,5.02,1.27,7.84,1.98ZM150.92,352.32c-1.95,1.22-2.98,1.67-3.75,2.39-7.44,6.97-9.22,6.56-12.97-2.66-.47-1.16-2.38-2.69-3.36-2.53-7.36,1.25-14.66,2.8-21.94,4.45-1.26.28-2.31,1.47-4.76,3.11,8.67,2.94,15.87,5.84,23.32,7.75,6.22,1.6,12.71,2.2,19.13,2.84,1.35.14,4.02-1.31,4.13-2.26.47-4,.2-8.09.2-13.1ZM86.46,41.01c1.59-16.3-.72-21.02-10.44-21.88-1.95,3.2-3.87,6.37-4.99,8.23,3.31,5.1,6.26,9.63,9.45,14.54,1.56-.23,3.81-.56,5.98-.88ZM39.29,374.08c.98,1.23,1.71,2.97,2.98,3.63,13.65,6.96,28.18,10.83,43.48,11.38,2.32.08,4.7-1.58,7.05-2.44-.16-.53-.33-1.05-.49-1.58-18.39.37-35.63-4.3-53.03-10.99ZM105.13,359.36c-.21.36-.42.71-.62,1.07,1.24,1.11,2.32,2.56,3.76,3.24,3.13,1.5,6.35,2.99,9.71,3.8,8.69,2.09,17.43,3.97,26.22,5.56,2.55.46,5.58.12,6.76-3.94-16.6,1.89-30.98-5.02-45.83-9.73ZM78.16,350.91c-2.72,5.65-1.67,10.49,1.72,15.08,1.51,2.03,3,2.13,4.95.51,3.87-3.22,5.6-7.14,4.44-12.46-3.6-1.01-7.34-2.07-11.11-3.13ZM134.17,219.06c.93-10.26,1.8-19.94,2.67-29.61l-1.35-.23c-3,9.53-6.01,19.05-9.23,29.26,2.85.21,4.9.36,7.91.58ZM148.34,346.68c-2.77-.36-5.35-.62-7.89-1.06-4.41-.76-5.22.08-4.02,4.55.47,1.74.92,3.59,1.88,5.06.54.82,2.76,1.65,3.11,1.32,2.82-2.7,6.91-4.63,6.93-9.87Z"/>
      <path class="cls-1" d="M35.55,354.69c-.33.14-.7.17-1.04.07-10.42-2.93-20.84-5.69-31.09-8.96-1.63-.52-3.47-3.49-3.42-5.27.05-1.73,2.06-4.14,3.81-4.95,6.43-2.97,13.03-4.4,20.24-1.84,6.56,2.33,13.55,3.45,20.17,5.63,2.16.71,4.6,2.74,5.44,4.77,1.37,3.35-1.69,4.98-4.29,6.22-3.11,1.48-6.3,2.8-9.82,4.33ZM43.03,344.3c1.19-.69.92-2.48-.41-2.82-7.28-1.9-14.13-3.55-20.83-5.67-5.24-1.65-9.86-.74-14.99,1.33-1.38.56-1.27,2.54.17,2.93,7.37,2.01,14.14,3.7,20.66,6.04,5.65,2.03,10.37,1.09,15.4-1.82ZM4.44,341.3c-.73-.2-1.5.15-1.82.85h0c1.2.74,2.31,1.82,3.61,2.17,9.28,2.51,18.51,5.39,27.94,7.08,5.08.91,9.34-2.72,13.1-6.1-1.24-.11-2.35.13-3.24.7-5.61,3.59-11.35,3.62-17.58,1.57-7.24-2.38-14.66-4.23-22.01-6.27Z"/>
    </g>
  </g>
</svg>