<?xml version="1.0" encoding="UTF-8"?>
<svg id="Layer_1" data-name="Layer 1" xmlns="http://www.w3.org/2000/svg" xmlns:xlink="http://www.w3.org/1999/xlink" viewBox="0 0 308.59 84.74">
  <defs>
    <style>
      .cls-1 {
        clip-path: url(#clippath);
      }

      .cls-2, .cls-3 {
        fill: none;
      }

      .cls-2, .cls-4 {
        stroke-width: 0px;
      }

      .cls-3 {
        stroke: #ebebeb;
        stroke-miterlimit: 10;
      }

      .cls-4 {
        fill: #fc3300;
      }
    </style>
    <clipPath id="clippath">
      <rect class="cls-2" x="0" width="308.59" height="84.74"/>
    </clipPath>
  </defs>
  <g class="cls-1">
    <path class="cls-4" d="M273.46,45.15c4.7-3.58,9.34-6.64,15.54-2.55-.24-.52-.46-1.06-.72-1.57-2.5-5.07-4.6-10.25-4.94-15.94-.19-3.27.07-6.51,2.21-9.2,4.35-5.46,11.89-4.93,15.99,1.05,3.14,4.58,4.63,9.74,5.5,15.09,1.81,11.06,1.43,21.99-2.47,32.63-2.36,6.45-5.97,12.09-12.11,15.83-5.12,3.12-10.73,4.31-16.7,3.51-3.42-.46-6.92-.92-10.17-1.99-5.67-1.86-8.08-7.08-6.34-12.64,1.41-4.49,5.3-5.99,10.11-5.41,5.76.69,10.98,2.89,15.83,5.92.32.2.65.38.99.55.08.04.21,0,.58,0-1.21-3.37-.52-6.57,1.08-9.73-.41-.04-.58-.12-.7-.07-11.74,4.8-25.68-1.68-29.44-14.28-2.37-7.94-3.25-15.94-.91-24.01,1.15-3.97,3.27-7.27,7.3-9.25,4.42-2.17,8.92-.08,10.89,3.11,1.76,2.86,2.37,6,2.49,9.24.22,6.31-1.12,12.37-3.45,18.23-.19.49-.38.98-.56,1.47"/>
    <path class="cls-3" d="M273.46,45.15c4.7-3.58,9.34-6.64,15.54-2.55-.24-.52-.46-1.06-.72-1.57-2.5-5.07-4.6-10.25-4.94-15.94-.19-3.27.07-6.51,2.21-9.2,4.35-5.46,11.89-4.93,15.99,1.05,3.14,4.58,4.63,9.74,5.5,15.09,1.81,11.06,1.43,21.99-2.47,32.63-2.36,6.45-5.97,12.09-12.11,15.83-5.12,3.12-10.73,4.31-16.7,3.51-3.42-.46-6.92-.92-10.17-1.99-5.67-1.86-8.08-7.08-6.34-12.64,1.41-4.49,5.3-5.99,10.11-5.41,5.76.69,10.98,2.89,15.83,5.92.32.2.65.38.99.55.08.04.21,0,.58,0-1.21-3.37-.52-6.57,1.08-9.73-.41-.04-.58-.12-.7-.07-11.74,4.8-25.68-1.68-29.44-14.28-2.37-7.94-3.25-15.94-.91-24.01,1.15-3.97,3.27-7.27,7.3-9.25,4.42-2.17,8.92-.08,10.89,3.11,1.76,2.86,2.37,6,2.49,9.24.22,6.31-1.12,12.37-3.45,18.23-.19.49-.38.98-.56,1.47Z"/>
    <path class="cls-4" d="M116.04,39.36c.59-2.78,1.01-5.15,1.59-7.48,1.39-5.55,3.76-10.58,7.64-14.78.57-.61.93-1.43,1.34-2.19,1.48-2.79,3.79-3.71,6.29-1.89,2.42,1.76,4.73,3.85,6.57,6.23,4.2,5.43,6.89,11.65,7.8,18.61.05.35.22.69.48,1.5.56-3.03.92-5.63,1.54-8.15,1.52-6.16,4.15-11.76,8.62-16.22,1.23-1.23,2.91-2.32,4.54-2.7,3.21-.75,5.79,1.69,6.56,5.49.73,3.59.49,7.18-.16,10.7-1.79,9.72-5.17,18.83-10.93,26.79-1.76,2.44-3.99,4.65-6.39,6.42-4.26,3.16-7.4,2.49-11.59-1.05-4.64-3.92-6.85-9.36-7.74-15.41-.14-.97-.29-1.93-.46-2.9-.03-.19-.17-.37-.44-.93-.22,1.01-.37,1.67-.51,2.32-1.21,5.5-2.88,10.79-6.52,15.18-1.68,2.02-3.69,3.49-6.19,4.29-3.65,1.17-6.63-.22-9.29-2.57-5.32-4.7-8.71-10.83-11.56-17.3-2.18-4.96-3.85-10.13-4.64-15.52-.57-3.86-.94-7.78.4-11.61,1.53-4.38,4.17-5.46,8.07-3.24,4.7,2.68,7.7,6.96,10.28,11.64,2.27,4.12,3.53,8.58,4.29,13.22.06.39.2.76.41,1.54"/>
    <path class="cls-3" d="M116.04,39.36c.59-2.78,1.01-5.15,1.59-7.48,1.39-5.55,3.76-10.58,7.64-14.78.57-.61.93-1.43,1.34-2.19,1.48-2.79,3.79-3.71,6.29-1.89,2.42,1.76,4.73,3.85,6.57,6.23,4.2,5.43,6.89,11.65,7.8,18.61.05.35.22.69.48,1.5.56-3.03.92-5.63,1.54-8.15,1.52-6.16,4.15-11.76,8.62-16.22,1.23-1.23,2.91-2.32,4.54-2.7,3.21-.75,5.79,1.69,6.56,5.49.73,3.59.49,7.18-.16,10.7-1.79,9.72-5.17,18.83-10.93,26.79-1.76,2.44-3.99,4.65-6.39,6.42-4.26,3.16-7.4,2.49-11.59-1.05-4.64-3.92-6.85-9.36-7.74-15.41-.14-.97-.29-1.93-.46-2.9-.03-.19-.17-.37-.44-.93-.22,1.01-.37,1.67-.51,2.32-1.21,5.5-2.88,10.79-6.52,15.18-1.68,2.02-3.69,3.49-6.19,4.29-3.65,1.17-6.63-.22-9.29-2.57-5.32-4.7-8.71-10.83-11.56-17.3-2.18-4.96-3.85-10.13-4.64-15.52-.57-3.86-.94-7.78.4-11.61,1.53-4.38,4.17-5.46,8.07-3.24,4.7,2.68,7.7,6.96,10.28,11.64,2.27,4.12,3.53,8.58,4.29,13.22.06.39.2.76.41,1.54Z"/>
    <path class="cls-4" d="M15.8,49.76c2.51-.89,4.86-2.06,7.35-2.51,2.92-.53,4.67,1.86,6.4,3.66v-21.58c-5.49,1.37-8.29-2.26-11.59-5.42.76,3.37,1.49,6.36,2.1,9.37,1.09,5.43.4,10.51-3.28,14.95-.4.48-.68,1.06-.98,1.54M32.29,59.04c-.28.07-.36.07-.38.1-3.41,5.33-8.54,4.86-13.65,3.62C8.11,60.3,1.86,53.29.72,42.91c-1.01-9.26,1.48-17.58,8.26-24.33,3.1-3.08,7-4.84,11.41-5.4,6.52-.83,8.86,3.56,9.62,7.71.07.36.12.71.5,1.14.2-.67.45-1.34.61-2.02,1.19-5.23,2.94-10.26,5.6-14.95.58-1.02,1.26-2.01,2.03-2.9,1.77-2.05,3.95-2.28,5.73-.24,1.56,1.79,2.89,3.9,3.79,6.08,2.53,6.07,3.64,12.51,3.96,19.02.23,4.84.3,9.71-.03,14.54-.42,6.2-1.57,12.29-5.23,17.6-.57.83-1.28,1.6-2.04,2.27-3.67,3.23-7.7,2.79-11.56-1.22-.37-.38-.71-.78-1.07-1.18"/>
    <path class="cls-3" d="M15.8,49.76c2.51-.89,4.86-2.06,7.35-2.51,2.92-.53,4.67,1.86,6.4,3.66v-21.58c-5.49,1.37-8.29-2.26-11.59-5.42.76,3.37,1.49,6.36,2.1,9.37,1.09,5.43.4,10.51-3.28,14.95-.4.48-.68,1.06-.98,1.54ZM32.29,59.04c-.28.07-.36.07-.38.1-3.41,5.33-8.54,4.86-13.65,3.62C8.11,60.3,1.86,53.29.72,42.91c-1.01-9.26,1.48-17.58,8.26-24.33,3.1-3.08,7-4.84,11.41-5.4,6.52-.83,8.86,3.56,9.62,7.71.07.36.12.71.5,1.14.2-.67.45-1.34.61-2.02,1.19-5.23,2.94-10.26,5.6-14.95.58-1.02,1.26-2.01,2.03-2.9,1.77-2.05,3.95-2.28,5.73-.24,1.56,1.79,2.89,3.9,3.79,6.08,2.53,6.07,3.64,12.51,3.96,19.02.23,4.84.3,9.71-.03,14.54-.42,6.2-1.57,12.29-5.23,17.6-.57.83-1.28,1.6-2.04,2.27-3.67,3.23-7.7,2.79-11.56-1.22-.37-.38-.71-.78-1.07-1.18Z"/>
    <path class="cls-4" d="M246.26,51.34c-1.3-2.88-1.19-5.49.23-8.14-3.36,1.58-6.85,2.28-10.42,2.29-6.95.02-13.58-1.32-19.43-5.31-8.63-5.89-6.34-15.36-1.63-20.3,3.9-4.1,8.86-6.26,14.32-7.22,7.79-1.39,15.48-.87,22.78,2.42,3.71,1.67,6.44,4.21,6.33,8.69-.1,4.01-2.57,6.47-6.61,6.65-4.53.2-8.78-.95-12.77-2.86-3.6-1.73-6.97-3.9-10.44-5.87-.17-.1-.36-.17-.89-.42,2.54,5.67-1.16,7.71-5.15,9.82.48-.06.97-.1,1.45-.18,6.91-1.22,13.82-1.4,20.67.32,5.02,1.26,9.48,3.62,11.89,8.35,3.51,6.9,2.59,15.17-5.97,19.88-3.97,2.18-8.26,3.34-12.71,3.79-7.55.77-15.05.35-22.35-1.9-1.3-.4-2.56-1.01-3.72-1.71-4.54-2.7-4.53-8.89.19-11.29,2.24-1.14,4.86-1.95,7.36-2.1,9.09-.53,17.87.92,26.11,4.95.14.07.31.06.78.14"/>
    <path class="cls-3" d="M246.26,51.34c-1.3-2.88-1.19-5.49.23-8.14-3.36,1.58-6.85,2.28-10.42,2.29-6.95.02-13.58-1.32-19.43-5.31-8.63-5.89-6.34-15.36-1.63-20.3,3.9-4.1,8.86-6.26,14.32-7.22,7.79-1.39,15.48-.87,22.78,2.42,3.71,1.67,6.44,4.21,6.33,8.69-.1,4.01-2.57,6.47-6.61,6.65-4.53.2-8.78-.95-12.77-2.86-3.6-1.73-6.97-3.9-10.44-5.87-.17-.1-.36-.17-.89-.42,2.54,5.67-1.16,7.71-5.15,9.82.48-.06.97-.1,1.45-.18,6.91-1.22,13.82-1.4,20.67.32,5.02,1.26,9.48,3.62,11.89,8.35,3.51,6.9,2.59,15.17-5.97,19.88-3.97,2.18-8.26,3.34-12.71,3.79-7.55.77-15.05.35-22.35-1.9-1.3-.4-2.56-1.01-3.72-1.71-4.54-2.7-4.53-8.89.19-11.29,2.24-1.14,4.86-1.95,7.36-2.1,9.09-.53,17.87.92,26.11,4.95.14.07.31.06.78.14Z"/>
    <path class="cls-4" d="M76.8,45.24c-2.51-.29-4.89-.31-7.12-.88-2.22-.58-4.28-1.72-6.64-2.7,4.85,5.66,1.5,10.13-1.91,14.68,4.47-4.11,9.4-6.91,15.66-6.36v-4.74ZM77.28,33.89c1.31-3.82,2.57-7.47,3.76-10.92-2.45,1.28-5.09,2.79-7.84,4.06-4.25,1.97-8.7,3.31-13.45,3.48-4.35.17-7.16-1.64-8.09-5.39-.77-3.09.71-5.4,2.9-7.33,2.73-2.41,6.04-3.75,9.54-4.6,5.22-1.28,10.49-1.83,15.82-.71,6.53,1.37,10.71,5.44,13.29,11.34,1.86,4.24,2.57,8.73,3,13.3.5,5.31.37,10.57-1.08,15.7-.66,2.31-1.67,4.66-3.08,6.59-2.73,3.73-7.65,4.19-11.43,1.51-.4-.28-1.25-.35-1.66-.12-4.98,2.84-10.39,2.93-15.85,2.36-2.16-.22-4.36-.73-6.38-1.5-7.21-2.77-8.9-7.26-7.71-13.97,1.51-8.48,7.49-13.11,15.43-15.5,4.49-1.35,8.91-1.22,12.84,1.69"/>
    <path class="cls-3" d="M76.8,45.24c-2.51-.29-4.89-.31-7.12-.88-2.22-.58-4.28-1.72-6.64-2.7,4.85,5.66,1.5,10.13-1.91,14.68,4.47-4.11,9.4-6.91,15.66-6.36v-4.74ZM77.28,33.89c1.31-3.82,2.57-7.47,3.76-10.92-2.45,1.28-5.09,2.79-7.84,4.06-4.25,1.97-8.7,3.31-13.45,3.48-4.35.17-7.16-1.64-8.09-5.39-.77-3.09.71-5.4,2.9-7.33,2.73-2.41,6.04-3.75,9.54-4.6,5.22-1.28,10.49-1.83,15.82-.71,6.53,1.37,10.71,5.44,13.29,11.34,1.86,4.24,2.57,8.73,3,13.3.5,5.31.37,10.57-1.08,15.7-.66,2.31-1.67,4.66-3.08,6.59-2.73,3.73-7.65,4.19-11.43,1.51-.4-.28-1.25-.35-1.66-.12-4.98,2.84-10.39,2.93-15.85,2.36-2.16-.22-4.36-.73-6.38-1.5-7.21-2.77-8.9-7.26-7.71-13.97,1.51-8.48,7.49-13.11,15.43-15.5,4.49-1.35,8.91-1.22,12.84,1.69Z"/>
    <path class="cls-4" d="M181.12,21.15c.52,4.15,1.04,8.34,1.57,12.58,3.5-1.99,6.82-3.88,10.04-5.71-3.88-2.3-7.71-4.57-11.6-6.87M180.85,51.96c5.21-3.56,10.69-6.01,16.56-7.53,2.85-.74,5.8-1.26,8.73-1.46,5.76-.4,7.33,3.88,6.27,8.13-.86,3.47-3.54,5.56-6.42,7.33-5.2,3.19-10.95,4.59-17,5.03-6.53.48-12.25-1.28-16.98-5.85-3.75-3.62-5.71-8.19-6.81-13.16-1.55-7-1.51-13.85,2.27-20.25,4.59-7.76,11.53-11.69,20.54-12.07,6.09-.25,11.72,1.22,16.91,4.41,4.36,2.69,6.13,6.77,6.51,11.63.16,2.13-.98,3.75-2.37,5.19-3.03,3.11-6.71,5.33-10.72,6.84-4.64,1.75-9.44,3.12-14.2,4.53-1.19.35-1.83.77-2.02,2.06-.24,1.64-.78,3.25-1.26,5.17"/>
    <path class="cls-3" d="M181.12,21.15c.52,4.15,1.04,8.34,1.57,12.58,3.5-1.99,6.82-3.88,10.04-5.71-3.88-2.3-7.71-4.57-11.6-6.87ZM180.85,51.96c5.21-3.56,10.69-6.01,16.56-7.53,2.85-.74,5.8-1.26,8.73-1.46,5.76-.4,7.33,3.88,6.27,8.13-.86,3.47-3.54,5.56-6.42,7.33-5.2,3.19-10.95,4.59-17,5.03-6.53.48-12.25-1.28-16.98-5.85-3.75-3.62-5.71-8.19-6.81-13.16-1.55-7-1.51-13.85,2.27-20.25,4.59-7.76,11.53-11.69,20.54-12.07,6.09-.25,11.72,1.22,16.91,4.41,4.36,2.69,6.13,6.77,6.51,11.63.16,2.13-.98,3.75-2.37,5.19-3.03,3.11-6.71,5.33-10.72,6.84-4.64,1.75-9.44,3.12-14.2,4.53-1.19.35-1.83.77-2.02,2.06-.24,1.64-.78,3.25-1.26,5.17Z"/>
  </g>
</svg>